<?xml version="1.0" encoding="utf-8"?>
<!-- Generator: Adobe Illustrator 19.1.0, SVG Export Plug-In . SVG Version: 6.00 Build 0)  -->
<svg version="1.1" id="Layer_1" xmlns="http://www.w3.org/2000/svg" xmlns:xlink="http://www.w3.org/1999/xlink" x="0px" y="0px"
	 viewBox="-285 377 40 40" style="enable-background:new -285 377 40 40;" xml:space="preserve">
<path d="M-248.1,394.4l-2.1,18.5c-0.3,2.3-2.2,4.1-4.4,4.1h-19.8c-2.2,0-4.2-1.8-4.4-4.1l-2.1-18.5c-0.4-3.1,1.5-5.8,4.2-5.8h4.1
	c0-0.1,0-0.3,0-0.4c0-5.3,1.4-11.3,8.1-11.3c6.7,0,8.1,6,8.1,11.3c-0.1,0.2-0.3,0.3-0.4,0.4h4.4
	C-249.6,388.7-247.7,391.3-248.1,394.4z M-259.2,388.3c0-3.4,0-7.9-5.3-7.9c-5.3,0-5.3,4.5-5.3,7.9c0,0.2,0,0.3,0,0.4h10.7
	C-259.1,388.5-259.1,388.3-259.2,388.3z M-254.1,391.2h-17.6c-0.2,0.1-0.4,0.2-0.5,0h-2.7c-2.3,0-3.9,2.2-3.6,4.7l1.8,15.2
	c0.2,1.9,1.9,3.4,3.8,3.4h16.9c1.9,0,3.5-1.5,3.8-3.4l1.8-15.2C-250.2,393.3-251.8,391.2-254.1,391.2z M-259.2,397.8
	c-1.1,0-2-0.9-2-2.1s0.9-2.1,2-2.1s2,0.9,2,2.1S-258.1,397.8-259.2,397.8z M-269.8,397.8c-1.1,0-2-0.9-2-2.1s0.9-2.1,2-2.1
	s2,0.9,2,2.1S-268.7,397.8-269.8,397.8z"/>
</svg>
